<?xml version="1.0" encoding="UTF-8"?>
<svg xmlns="http://www.w3.org/2000/svg" xmlns:xlink="http://www.w3.org/1999/xlink" viewBox="0 0 943.46 745.33">
  <defs>
    <style>
      .cls-1 {
        letter-spacing: .01em;
      }

      .cls-2 {
        fill: url(#linear-gradient-2);
      }

      .cls-3, .cls-4 {
        fill: #fff;
      }

      .cls-5 {
        letter-spacing: 0em;
      }

      .cls-4 {
        font-size: 9.19px;
      }

      .cls-6 {
        fill: url(#linear-gradient-15);
      }

      .cls-7 {
        fill: url(#linear-gradient-14);
      }

      .cls-8 {
        letter-spacing: -.01em;
      }

      .cls-9 {
        letter-spacing: 0em;
      }

      .cls-10 {
        fill: url(#linear-gradient-6);
      }

      .cls-11 {
        font-family: Muli-Light, 'Muli Light';
        font-weight: 300;
      }

      .cls-12 {
        isolation: isolate;
      }

      .cls-13 {
        stroke: #fff;
        stroke-miterlimit: 10;
        stroke-width: .28px;
      }

      .cls-13, .cls-14 {
        fill: none;
      }

      .cls-15 {
        fill: url(#linear-gradient-11);
      }

      .cls-16 {
        letter-spacing: 0em;
      }

      .cls-17 {
        letter-spacing: -.03em;
      }

      .cls-18 {
        fill: url(#linear-gradient-10);
      }

      .cls-19 {
        letter-spacing: 0em;
      }

      .cls-20 {
        letter-spacing: 0em;
      }

      .cls-21 {
        mix-blend-mode: multiply;
        opacity: .45;
      }

      .cls-22 {
        letter-spacing: .01em;
      }

      .cls-23 {
        fill: url(#linear-gradient-5);
      }

      .cls-24 {
        letter-spacing: 0em;
      }

      .cls-25 {
        letter-spacing: -.01em;
      }

      .cls-26 {
        fill: url(#linear-gradient-7);
      }

      .cls-27 {
        font-family: Muli-Bold, 'Muli Bold';
        font-weight: 700;
      }

      .cls-28 {
        fill: url(#linear-gradient-9);
      }

      .cls-29 {
        letter-spacing: 0em;
      }

      .cls-30 {
        fill: url(#linear-gradient-3);
      }

      .cls-31 {
        letter-spacing: -.04em;
      }

      .cls-32 {
        fill: url(#linear-gradient);
      }

      .cls-33 {
        fill: #0c1019;
      }

      .cls-34 {
        letter-spacing: 0em;
      }

      .cls-35 {
        fill: url(#linear-gradient-4);
      }

      .cls-36 {
        letter-spacing: 0em;
      }

      .cls-37 {
        fill: url(#linear-gradient-8);
      }

      .cls-38 {
        fill: url(#linear-gradient-12);
      }

      .cls-39 {
        letter-spacing: 0em;
      }

      .cls-40 {
        fill: url(#linear-gradient-13);
      }
    </style>
    <clipPath id="clippath">
      <path class="cls-14" d="m226.54,0h544.82C829.41,0,876.54,47.13,876.54,105.18v94.82H331.72c-58.05,0-105.18-47.13-105.18-105.18V0h0Z"/>
    </clipPath>
    <linearGradient id="linear-gradient" x1="215.35" y1="82.01" x2="589.43" y2="82.01" gradientUnits="userSpaceOnUse">
      <stop offset="0" stop-color="#f5f5f5"/>
      <stop offset=".25" stop-color="#bdbdbd"/>
      <stop offset=".31" stop-color="#b7b7b7"/>
      <stop offset=".38" stop-color="#a7a6a7"/>
      <stop offset=".47" stop-color="#8c8b8c"/>
      <stop offset=".57" stop-color="#676667"/>
      <stop offset=".65" stop-color="#414042"/>
      <stop offset="1" stop-color="#dfdfdf"/>
    </linearGradient>
    <linearGradient id="linear-gradient-2" x1="215.35" y1="81.95" x2="589.43" y2="81.95" gradientUnits="userSpaceOnUse">
      <stop offset="0" stop-color="#f5f5f5"/>
      <stop offset=".29" stop-color="#bdbdbd"/>
      <stop offset=".35" stop-color="#b7b7b7"/>
      <stop offset=".41" stop-color="#a7a6a7"/>
      <stop offset=".49" stop-color="#8c8b8c"/>
      <stop offset=".58" stop-color="#676667"/>
      <stop offset=".65" stop-color="#414042"/>
      <stop offset="1" stop-color="#dfdfdf"/>
    </linearGradient>
    <linearGradient id="linear-gradient-3" x1="215.35" y1="81.91" x2="589.43" y2="81.91" xlink:href="#linear-gradient-2"/>
    <linearGradient id="linear-gradient-4" x1="396.84" y1="90.61" x2="427.36" y2="74.21" gradientUnits="userSpaceOnUse">
      <stop offset=".06" stop-color="#f5f5f5"/>
      <stop offset=".43" stop-color="#bdbdbd"/>
      <stop offset=".65" stop-color="#414042"/>
      <stop offset="1" stop-color="#dfdfdf"/>
    </linearGradient>
    <linearGradient id="linear-gradient-5" x1="397.65" y1="98.57" x2="430.44" y2="79.03" gradientUnits="userSpaceOnUse">
      <stop offset=".04" stop-color="#f5f5f5"/>
      <stop offset=".43" stop-color="#bdbdbd"/>
      <stop offset=".65" stop-color="#414042"/>
      <stop offset="1" stop-color="#dfdfdf"/>
    </linearGradient>
    <linearGradient id="linear-gradient-6" x1="400.23" y1="81.8" x2="420.43" y2="70.45" gradientUnits="userSpaceOnUse">
      <stop offset=".07" stop-color="#f5f5f5"/>
      <stop offset=".42" stop-color="#bdbdbd"/>
      <stop offset=".65" stop-color="#414042"/>
      <stop offset="1" stop-color="#dfdfdf"/>
    </linearGradient>
    <linearGradient id="linear-gradient-7" x1="399.91" y1="83.92" x2="419.55" y2="73.31" gradientUnits="userSpaceOnUse">
      <stop offset="0" stop-color="#f5f5f5"/>
      <stop offset=".29" stop-color="#bdbdbd"/>
      <stop offset=".65" stop-color="#414042"/>
      <stop offset="1" stop-color="#dfdfdf"/>
    </linearGradient>
    <linearGradient id="linear-gradient-8" x1="392.41" y1="96.25" x2="427.42" y2="75.72" xlink:href="#linear-gradient-7"/>
    <linearGradient id="linear-gradient-9" x1="441.1" y1="83.02" x2="412.61" y2="97.76" xlink:href="#linear-gradient-2"/>
    <linearGradient id="linear-gradient-10" x1="442.76" y1="74.44" x2="418.32" y2="92.64" xlink:href="#linear-gradient-7"/>
    <linearGradient id="linear-gradient-11" x1="442.24" y1="67.53" x2="419.36" y2="85.28" xlink:href="#linear-gradient-7"/>
    <linearGradient id="linear-gradient-12" x1="416.76" y1="87.52" x2="445.2" y2="68.3" xlink:href="#linear-gradient-7"/>
    <linearGradient id="linear-gradient-13" x1="410.18" y1="99.13" x2="453.02" y2="70.34" xlink:href="#linear-gradient-7"/>
    <linearGradient id="linear-gradient-14" x1="389.16" y1="104.52" x2="434.39" y2="79.89" xlink:href="#linear-gradient-7"/>
    <linearGradient id="linear-gradient-15" x1="406.81" y1="104.18" x2="443.35" y2="83.3" gradientUnits="userSpaceOnUse">
      <stop offset="0" stop-color="#f5f5f5"/>
      <stop offset=".29" stop-color="#bdbdbd"/>
      <stop offset=".47" stop-color="#414042"/>
      <stop offset="1" stop-color="#dfdfdf"/>
    </linearGradient>
  </defs>
  <g class="cls-12">
    <g id="Layer_1" data-name="Layer 1">
      <path class="cls-33" d="m226.54,0h544.82C829.41,0,876.54,47.13,876.54,105.18v94.82H331.72c-58.05,0-105.18-47.13-105.18-105.18V0h0Z"/>
      <path class="cls-21" d="m226.54,0h544.82C829.41,0,876.54,47.13,876.54,105.18v94.82H331.72c-58.05,0-105.18-47.13-105.18-105.18V0h0Z"/>
      <text class="cls-4" transform="translate(508.25 124.06)"><tspan class="cls-27"><tspan class="cls-9" x="0" y="0">E</tspan><tspan class="cls-8" x="4.6" y="0">V</tspan><tspan x="9.6" y="0">-Ele</tspan><tspan class="cls-1" x="23.71" y="0">c</tspan><tspan x="27.94" y="0">t</tspan><tspan class="cls-5" x="30.98" y="0">r</tspan><tspan x="34.02" y="0">ic (</tspan><tspan class="cls-9" x="44.84" y="0">E</tspan><tspan class="cls-17" x="49.44" y="0">V</tspan><tspan x="54.26" y="0">e) Cha</tspan><tspan class="cls-29" x="78.27" y="0">r</tspan><tspan class="cls-36" x="81.2" y="0">g</tspan><tspan x="86.28" y="0">ing </tspan><tspan class="cls-39" x="100.61" y="0">P</tspan><tspan class="cls-36" x="105.55" y="0">t</tspan><tspan x="108.54" y="0">e </tspan><tspan class="cls-16" x="115.09" y="0">L</tspan><tspan class="cls-24" x="119.39" y="0">t</tspan><tspan class="cls-19" x="122.37" y="0">d</tspan></tspan><tspan class="cls-11"><tspan class="cls-22" x="0" y="11.02">ww</tspan><tspan class="cls-31" x="13.74" y="11.02">w</tspan><tspan x="20.14" y="11.02">.e</tspan><tspan class="cls-34" x="26.65" y="11.02">v</tspan><tspan class="cls-25" x="30.97" y="11.02">e</tspan><tspan x="35.46" y="11.02">.</tspan><tspan class="cls-20" x="37.36" y="11.02">c</tspan><tspan x="41.42" y="11.02">om.sg</tspan></tspan></text>
      <line class="cls-13" x1="474.21" y1="39.64" x2="474.21" y2="155.05"/>
      <g>
        <path class="cls-3" d="m784.94,161.25c-6.79,0-12.29,5.5-12.29,12.29,0,6.13,4.49,11.22,10.37,12.14v-8.59h-3.12v-3.55h3.12v-2.71c0-3.08,1.83-4.78,4.64-4.78,1.34,0,2.75.24,2.75.24v3.02h-1.55c-1.53,0-2,.95-2,1.92v2.3h3.41l-.54,3.55h-2.86v8.59c5.87-.92,10.37-6,10.37-12.14,0-6.79-5.5-12.29-12.29-12.29Z"/>
        <g>
          <path class="cls-3" d="m823.54,168.98c-.14-.36-.31-.62-.58-.89-.27-.27-.53-.44-.89-.58-.27-.11-.68-.23-1.44-.27-.82-.04-1.06-.05-3.13-.05s-2.31,0-3.13.05c-.75.03-1.16.16-1.44.27-.36.14-.62.31-.89.58s-.44.53-.58.89c-.11.27-.23.68-.27,1.44-.04.82-.05,1.06-.05,3.13s0,2.31.05,3.13c.03.75.16,1.16.27,1.44.14.36.31.62.58.89s.53.44.89.58c.27.11.68.23,1.44.27.82.04,1.06.05,3.13.05s2.31,0,3.13-.05c.75-.03,1.16-.16,1.44-.27.36-.14.62-.31.89-.58.27-.27.44-.53.58-.89.11-.27.23-.68.27-1.44.04-.82.05-1.06.05-3.13s0-2.31-.05-3.13c-.03-.75-.16-1.16-.27-1.44Zm-6.03,8.53c-2.19,0-3.97-1.78-3.97-3.97s1.78-3.97,3.97-3.97,3.97,1.78,3.97,3.97-1.78,3.97-3.97,3.97Zm4.13-7.17c-.51,0-.93-.42-.93-.93s.42-.93.93-.93.93.42.93.93-.42.93-.93.93Z"/>
          <path class="cls-3" d="m817.51,170.96c-1.42,0-2.58,1.15-2.58,2.58s1.15,2.58,2.58,2.58,2.58-1.15,2.58-2.58-1.15-2.58-2.58-2.58Z"/>
          <path class="cls-3" d="m817.51,161.25c-6.79,0-12.29,5.5-12.29,12.29s5.5,12.29,12.29,12.29,12.29-5.5,12.29-12.29-5.5-12.29-12.29-12.29Zm7.69,15.48c-.04.82-.17,1.39-.36,1.88-.2.51-.46.94-.89,1.37-.43.43-.86.69-1.37.89-.49.19-1.05.32-1.88.36-.83.04-1.09.05-3.19.05s-2.36,0-3.19-.05c-.82-.04-1.39-.17-1.88-.36-.51-.2-.94-.46-1.37-.89-.43-.43-.69-.86-.89-1.37-.19-.49-.32-1.05-.36-1.88-.04-.83-.05-1.09-.05-3.19s0-2.36.05-3.19c.04-.82.17-1.39.36-1.88.2-.51.46-.94.89-1.37.43-.43.86-.69,1.37-.89.49-.19,1.05-.32,1.88-.36.83-.04,1.09-.05,3.19-.05s2.36,0,3.19.05c.82.04,1.39.17,1.88.36.51.2.94.46,1.37.89.43.43.69.86.89,1.37.19.49.32,1.05.36,1.88.04.83.05,1.09.05,3.19s0,2.36-.05,3.19Z"/>
        </g>
        <path class="cls-3" d="m850.08,161.25c-6.79,0-12.29,5.5-12.29,12.29s5.5,12.29,12.29,12.29,12.29-5.5,12.29-12.29-5.5-12.29-12.29-12.29Zm-4.06,19c-.87,0-1.75,0-2.62,0-.14,0-.18-.03-.18-.18,0-3.11,0-6.23,0-9.34,0-.13.03-.17.17-.17.89,0,1.77,0,2.66,0,.17,0,.19.06.19.21,0,1.55,0,3.1,0,4.65s0,3.08,0,4.62c0,.17-.04.22-.22.22Zm-1.29-11.03c-.95,0-1.74-.79-1.75-1.74,0-.96.79-1.75,1.75-1.75.95,0,1.74.79,1.74,1.74,0,.97-.78,1.75-1.75,1.75Zm12.81,10.83c0,.16-.04.2-.2.2-.87,0-1.75,0-2.62,0-.15,0-.19-.05-.19-.19,0-1.61,0-3.23,0-4.84,0-.4-.03-.81-.14-1.2-.21-.72-.73-1.09-1.49-1.05-1.04.05-1.58.57-1.71,1.62-.03.25-.05.5-.05.76,0,1.57,0,3.14,0,4.71,0,.16-.04.2-.2.2-.88,0-1.76,0-2.64,0-.14,0-.18-.04-.18-.18,0-3.11,0-6.22,0-9.33,0-.15.05-.19.2-.19.84,0,1.67,0,2.51,0,.15,0,.19.05.19.19,0,.37,0,.74,0,1.12.2-.23.37-.46.58-.65.64-.6,1.39-.9,2.27-.9.48,0,.96.04,1.43.17,1.07.31,1.69,1.04,1.98,2.08.22.78.26,1.58.26,2.39,0,1.7,0,3.39,0,5.09Z"/>
      </g>
      <g>
        <g>
          <g>
            <path class="cls-32" d="m293.4,65.72c-4.49,0-9.39,3.16-10.12,8.49l-3.42,24.12,31.87-.04.95-6.71-25.54.03.88-6.24,25.54-.03.95-6.71-25.55.03.15-1.06c.43-3.05,2.86-5.18,5.91-5.18l20.37-.03.95-6.71-22.96.03Z"/>
            <path class="cls-2" d="m357.66,65.64c-4.54,0-8.6,2.21-10.84,5.9l-11.25,18.46-6.92-24.33h-8.33s9.27,32.59,9.27,32.59h10.14s19.87-32.64,19.87-32.64h-1.93Z"/>
            <path class="cls-30" d="m387.29,70.2c-2.63-2.97-6.48-4.6-10.82-4.59-9.26.01-17.87,7.43-19.2,16.54-.64,4.37.5,8.44,3.19,11.48,2.63,2.96,6.48,4.6,10.82,4.59,6.08,0,12.15-3.28,15.86-8.46h-4.01c-2.21,0-4.49.43-6.99,1.3-1.14.39-2.31.6-3.47.6-3.96,0-7.26-2.31-8.39-5.9l-.14-.44,25.6-.03c.34-1,.58-2.59.72-3.6.64-4.37-.5-8.44-3.19-11.48Zm-21.32,8.33l.5-.79c1.96-2.99,5.53-4.93,9.1-4.93,3.73,0,6.82,2.05,7.87,5.25l.1.45-17.58.02Z"/>
          </g>
          <g>
            <g>
              <g>
                <path class="cls-35" d="m415.8,80.61s-1.23-2.85-5.1-1.47c0,0-1.34.54-3.38,1.91l-5.26,3.75-.65,4.7,6.07-4.34s2.96-2.11,4.26-2.67c0,0,3.26-1.76,5.7,1.14l-1.65-3.01Z"/>
                <path class="cls-23" d="m418.88,86.26s-1.23-2.85-5.1-1.47c0,0-1.34.54-3.38,1.91l-9.56,6.82-.65,4.7,10.37-7.41s2.96-2.11,4.26-2.67c0,0,3.26-1.76,5.7,1.13l-1.65-3.01Z"/>
                <path class="cls-10" d="m412.73,75.02s-1.23-2.85-5.1-1.47c0,0-1.34.54-3.38,1.91l-1,.72-.65,4.7,1.8-1.31s2.96-2.11,4.26-2.67c0,0,3.26-1.76,5.7,1.14l-1.65-3.01Z"/>
                <path class="cls-26" d="m414.37,78.03c-2.45-2.89-5.7-1.14-5.7-1.14-1.3.56-4.26,2.67-4.26,2.67l-1.8,1.31-.04.26,1.81-1.31s2.96-2.11,4.26-2.67c0,0,3.36-1.83,5.9,1.19l-.16-.31Z"/>
                <path class="cls-37" d="m417.44,83.62c-2.45-2.89-5.7-1.14-5.7-1.14-1.3.56-4.26,2.67-4.26,2.67l-6.07,4.34-.03.25,6.07-4.34s2.96-2.11,4.26-2.67c0,0,3.4-1.76,5.92,1.22l-.18-.33Z"/>
              </g>
              <path class="cls-28" d="m420.53,89.26l1.64,2.99c1.1,2.09,3.1,2.27,3.69,2.27s2.1.1,5.19-2.13l8.37-6.03.65-4.69-12.23,8.82s-1.91,1.34-3.29,1.34c0,0-.85.09-2.13-.72,0,0-.81-.5-1.9-1.85Z"/>
              <path class="cls-18" d="m441.18,73.69l-8.41,5.94s-1.96,1.38-3.26,4.52l-1.46,3.04,12.48-8.83.65-4.68Z"/>
              <path class="cls-15" d="m442.29,65.69l-8.41,5.94s-1.96,1.38-3.26,4.52l-1.46,3.04,12.48-8.83.65-4.68Z"/>
              <polygon class="cls-38" points="429.16 79.19 429.11 79.52 441.59 70.69 441.64 70.37 429.16 79.19"/>
              <polygon class="cls-40" points="428.05 87.19 428 87.52 440.48 78.69 440.53 78.36 428.05 87.19"/>
            </g>
            <path class="cls-7" d="m420.53,89.26c-2.45-2.89-5.7-1.13-5.7-1.13-1.3.56-4.26,2.67-4.26,2.67l-10.37,7.41-.05.34,10.37-7.41s2.96-2.11,4.26-2.67c0,0,3.5-1.85,6.02,1.28l-.26-.48Z"/>
            <path class="cls-6" d="m425.86,94.53c-.54,0-2.3-.16-3.44-1.85l.05.11c1.1,2.09,3.1,2.09,3.69,2.09.59,0,2.35-.22,4.83-2.06l8.37-6.03.06-.43-8.37,6.03c-3.1,2.23-4.61,2.13-5.19,2.13Z"/>
          </g>
        </g>
        <g>
          <path class="cls-3" d="m279.87,113.72h7.36v1.11h-6.03v4.06h5.71v1.13h-5.71v4.24h6.03v1.11h-7.36v-11.64Z"/>
          <path class="cls-3" d="m301.17,120.2v5.17h-1.33v-5.1c0-.77-.13-1.34-.4-1.68-.27-.35-.7-.52-1.3-.52-.7,0-1.24.23-1.64.7-.39.47-.59,1.11-.59,1.91v4.69h-1.33v-5.1c0-.76-.14-1.32-.41-1.68s-.71-.53-1.31-.53c-.7,0-1.24.23-1.64.7-.4.47-.6,1.11-.6,1.91v4.69h-1.32v-5.92c0-.85-.05-1.62-.13-2.31h1.26l.13,1.44c.23-.52.57-.93,1.02-1.21.45-.28.98-.43,1.58-.43.66,0,1.19.13,1.6.39.41.26.72.67.91,1.21.25-.49.62-.88,1.1-1.17.48-.29,1.03-.43,1.64-.43,1.82,0,2.73,1.08,2.73,3.25Z"/>
          <path class="cls-3" d="m309.71,117.49c.56.36.99.86,1.29,1.51.3.65.46,1.4.46,2.25s-.15,1.59-.46,2.23c-.31.64-.73,1.13-1.29,1.48s-1.19.52-1.92.52c-.64,0-1.2-.14-1.68-.43-.48-.28-.85-.69-1.1-1.21v5.05h-1.32v-9.45c0-.85-.05-1.62-.13-2.31h1.26l.13,1.59c.23-.57.59-1.01,1.09-1.32.49-.31,1.08-.47,1.76-.47.72,0,1.36.18,1.92.54Zm-.29,6.08c.44-.55.66-1.32.66-2.32s-.22-1.79-.67-2.35c-.45-.56-1.07-.84-1.87-.84s-1.44.27-1.88.82c-.44.55-.66,1.32-.66,2.34s.22,1.8.66,2.35c.43.55,1.06.83,1.88.83s1.43-.27,1.87-.82Z"/>
          <path class="cls-3" d="m314.86,124.96c-.59-.35-1.04-.84-1.37-1.49-.32-.64-.48-1.39-.48-2.26s.16-1.61.48-2.26c.32-.64.78-1.14,1.37-1.49.59-.35,1.27-.52,2.04-.52s1.46.17,2.05.52c.59.35,1.04.84,1.37,1.49.32.64.48,1.4.48,2.26s-.16,1.61-.48,2.26c-.32.64-.78,1.14-1.37,1.49s-1.27.52-2.05.52-1.45-.17-2.04-.52Zm3.93-1.38c.44-.54.65-1.33.65-2.36s-.22-1.78-.67-2.33-1.07-.83-1.87-.83-1.43.28-1.88.83-.67,1.33-.67,2.33.22,1.82.66,2.36c.44.54,1.07.81,1.89.81s1.44-.27,1.88-.81Z"/>
          <path class="cls-3" d="m335.25,117.14l-3.04,8.23h-1.28l-2.35-6.43-2.34,6.43h-1.28l-3.04-8.23h1.39l2.32,6.64,2.4-6.64h1.16l2.37,6.66,2.37-6.66h1.31Z"/>
          <path class="cls-3" d="m343.76,121.21h-6.03c0,1.05.25,1.84.73,2.37.48.53,1.16.8,2.07.8.96,0,1.84-.32,2.65-.96l.44.96c-.36.34-.82.6-1.38.8-.56.2-1.14.29-1.72.29-1.29,0-2.3-.38-3.02-1.14-.73-.76-1.1-1.8-1.1-3.12,0-.84.16-1.58.49-2.23s.78-1.15,1.37-1.51,1.26-.54,2.01-.54c1.09,0,1.95.36,2.57,1.07.62.71.93,1.7.93,2.95v.25Zm-5.16-2.62c-.43.41-.71,1-.83,1.75h4.79c-.06-.77-.29-1.36-.68-1.77-.38-.4-.92-.6-1.61-.6s-1.24.21-1.68.62Z"/>
          <path class="cls-3" d="m350.35,117.04l-.03,1.21c-.25-.09-.54-.13-.86-.13-.8,0-1.39.25-1.77.74-.39.5-.58,1.1-.58,1.81v4.69h-1.32v-5.92c0-.85-.05-1.62-.13-2.31h1.26l.13,1.52c.21-.56.54-.98,1-1.28.46-.29.98-.44,1.57-.44.27,0,.53.03.75.1Z"/>
          <path class="cls-3" d="m353.18,113.66v1.5h-1.62v-1.5h1.62Zm-1.49,3.48h1.32v8.23h-1.32v-8.23Z"/>
          <path class="cls-3" d="m362.64,120.2v5.17h-1.32v-5.1c0-.76-.15-1.32-.46-1.68s-.78-.53-1.44-.53c-.76,0-1.37.23-1.83.7-.46.47-.69,1.1-.69,1.9v4.71h-1.32v-5.92c0-.85-.05-1.62-.13-2.31h1.26l.13,1.47c.25-.53.63-.95,1.13-1.24.5-.29,1.07-.43,1.72-.43,1.97,0,2.96,1.08,2.96,3.25Z"/>
          <path class="cls-3" d="m372.47,117.14v8.16c0,1.22-.31,2.14-.94,2.77-.63.63-1.55.94-2.77.94s-2.33-.28-3.24-.85l.23-1.08c.52.29,1.01.51,1.48.64s.97.2,1.53.2c.8,0,1.39-.21,1.8-.63.4-.42.61-1.04.61-1.87v-1.95c-.25.52-.62.93-1.1,1.22s-1.06.43-1.72.43c-.72,0-1.36-.17-1.92-.51-.56-.34-.99-.82-1.3-1.44-.3-.62-.46-1.34-.46-2.14s.15-1.52.46-2.14c.31-.62.74-1.1,1.3-1.44.56-.34,1.2-.51,1.92-.51.65,0,1.22.14,1.71.43.48.28.85.68,1.1,1.19v-1.42h1.32Zm-2,6.08c.45-.53.68-1.26.68-2.18s-.23-1.65-.68-2.18c-.45-.53-1.08-.79-1.87-.79s-1.44.26-1.91.79c-.46.53-.69,1.26-.69,2.18s.23,1.65.69,2.18c.46.53,1.1.79,1.91.79s1.42-.26,1.87-.79Z"/>
          <path class="cls-3" d="m377.94,127.12c.49.09.88.13,1.18.13.56,0,.95-.16,1.17-.47.22-.31.34-.84.34-1.59v-11.46h1.34v11.48c0,1.13-.2,1.95-.61,2.45s-1.08.75-2.02.75c-.37,0-.83-.04-1.39-.13v-1.16Z"/>
          <path class="cls-3" d="m386.03,124.96c-.59-.35-1.04-.84-1.37-1.49-.32-.64-.48-1.39-.48-2.26s.16-1.61.48-2.26c.32-.64.78-1.14,1.37-1.49.59-.35,1.27-.52,2.04-.52s1.46.17,2.05.52c.59.35,1.04.84,1.37,1.49.32.64.48,1.4.48,2.26s-.16,1.61-.48,2.26c-.32.64-.78,1.14-1.37,1.49s-1.27.52-2.05.52-1.45-.17-2.04-.52Zm3.93-1.38c.44-.54.65-1.33.65-2.36s-.22-1.78-.67-2.33-1.07-.83-1.87-.83-1.43.28-1.88.83-.67,1.33-.67,2.33.22,1.82.66,2.36c.44.54,1.07.81,1.89.81s1.44-.27,1.88-.81Z"/>
          <path class="cls-3" d="m400.91,117.14v8.23h-1.29v-1.42c-.26.5-.63.88-1.1,1.15-.47.26-1,.39-1.59.39-.97,0-1.71-.27-2.21-.82s-.75-1.35-.75-2.42v-5.1h1.33v5.07c0,.74.15,1.29.46,1.64.31.35.77.52,1.39.52.73,0,1.32-.24,1.77-.71.45-.47.67-1.1.67-1.87v-4.64h1.33Z"/>
          <path class="cls-3" d="m408.04,117.04l-.03,1.21c-.25-.09-.54-.13-.86-.13-.8,0-1.39.25-1.77.74-.39.5-.58,1.1-.58,1.81v4.69h-1.32v-5.92c0-.85-.05-1.62-.13-2.31h1.26l.13,1.52c.21-.56.54-.98,1-1.28.46-.29.98-.44,1.57-.44.27,0,.53.03.75.1Z"/>
          <path class="cls-3" d="m416.45,120.2v5.17h-1.32v-5.1c0-.76-.15-1.32-.46-1.68s-.78-.53-1.44-.53c-.76,0-1.37.23-1.83.7-.46.47-.69,1.1-.69,1.9v4.71h-1.32v-5.92c0-.85-.05-1.62-.13-2.31h1.26l.13,1.47c.25-.53.63-.95,1.13-1.24.5-.29,1.07-.43,1.72-.43,1.97,0,2.96,1.08,2.96,3.25Z"/>
          <path class="cls-3" d="m425.84,121.21h-6.03c0,1.05.25,1.84.73,2.37.48.53,1.16.8,2.07.8.96,0,1.84-.32,2.65-.96l.44.96c-.36.34-.82.6-1.38.8-.56.2-1.14.29-1.72.29-1.29,0-2.3-.38-3.02-1.14-.73-.76-1.1-1.8-1.1-3.12,0-.84.16-1.58.49-2.23s.78-1.15,1.37-1.51,1.26-.54,2.01-.54c1.09,0,1.95.36,2.57,1.07.62.71.93,1.7.93,2.95v.25Zm-5.16-2.62c-.43.41-.71,1-.83,1.75h4.79c-.06-.77-.29-1.36-.68-1.77-.38-.4-.92-.6-1.61-.6s-1.24.21-1.68.62Z"/>
          <path class="cls-3" d="m434.98,117.14l-3.84,8.98c-.4.94-.91,1.63-1.52,2.06-.61.44-1.36.74-2.26.9l-.28-1.03c.77-.17,1.36-.41,1.76-.69.4-.29.73-.73.99-1.33l.33-.74-3.48-8.14h1.39l2.78,6.79,2.81-6.79h1.32Z"/>
          <path class="cls-3" d="m435.78,124.42l.44-.98c.45.35.9.6,1.36.75.46.15.97.23,1.54.23.62,0,1.09-.11,1.41-.32s.48-.52.48-.92c0-.33-.11-.59-.33-.78-.22-.2-.58-.35-1.08-.46l-1.39-.33c-.69-.15-1.22-.43-1.59-.82-.38-.39-.56-.86-.56-1.41,0-.72.29-1.31.86-1.76.58-.45,1.34-.68,2.29-.68.58,0,1.12.09,1.63.28s.94.45,1.29.8l-.44.96c-.77-.64-1.6-.96-2.49-.96-.59,0-1.05.11-1.37.34-.32.22-.48.54-.48.94,0,.34.1.6.3.8.2.2.53.35.97.46l1.39.34c.76.17,1.33.44,1.7.81.37.37.56.84.56,1.43,0,.71-.29,1.28-.87,1.7-.58.43-1.36.64-2.35.64-1.39,0-2.48-.35-3.29-1.06Z"/>
        </g>
      </g>
    </g>
  </g>
</svg>